<svg width="958" height="959" viewBox="0 0 958 959" fill="none" xmlns="http://www.w3.org/2000/svg">
<path d="M604.664 83.267C550.941 89.5994 504.222 109.748 468.407 142.068C450.144 158.598 437.645 174.141 427.981 192.399C414.861 217.399 409.453 239.193 409.365 266.825C409.365 286.974 412.202 302.928 418.939 321.35C425.943 340.183 438.176 360.414 451.829 375.463C454.754 378.835 457.236 381.796 457.236 382.043C457.236 382.371 450.854 406.139 443.052 434.84C435.34 463.542 429.134 487.227 429.4 487.473C429.666 487.638 455.02 476.124 485.871 461.897L541.899 435.992L552.537 439.446C565.125 443.558 584.806 448.163 599.079 450.219C613.795 452.357 657.146 452.357 671.773 450.219C717.074 443.64 756.701 428.014 789.502 403.671C813.704 385.743 831.878 364.937 845.087 339.854C858.118 315.264 863.26 294.622 863.26 267.072C863.26 246.923 860.778 232.614 853.952 213.205C850.76 204.159 839.679 183.517 833.296 174.553C798.633 126.443 741.364 94.1226 672.66 84.0071C659.716 82.1156 618.405 81.7044 604.664 83.267ZM665.567 109.09C719.29 116.081 764.591 137.956 797.038 172.826C815.211 192.316 827.356 214.85 833.296 239.933C835.069 247.499 835.335 250.871 835.335 267.072C835.335 287.714 834.182 294.622 828.243 311.317C814.413 349.64 780.46 384.345 736.932 404.658C704.574 419.708 673.191 426.534 636.312 426.616C604.753 426.616 581.083 422.504 552.803 412.142L540.569 407.701L505.286 424.067L469.914 440.515L478.867 407.372L487.733 374.23L481.261 367.733C457.68 344.212 442.875 316.333 438.088 286.398C436.137 273.98 436.758 251.117 439.506 239.522C455.197 171.839 520.002 120.604 604.398 109.255C620.178 107.116 649.521 107.034 665.567 109.09Z" fill="#D6C7A8" fill-opacity="0.55"/>
<mask id="mask0_2001_2" style="mask-type:alpha" maskUnits="userSpaceOnUse" x="338" y="0" width="543" height="590">
<path d="M712.004 582.735C658.697 593.385 603.38 590.471 551.635 574.288C499.89 558.105 453.55 529.226 417.289 490.565C381.029 451.904 356.133 404.83 345.114 354.093C334.094 303.356 337.342 250.752 354.528 201.59C371.714 152.428 402.23 108.448 442.998 74.0883C483.765 39.7288 533.341 16.2058 586.721 5.89336C640.101 -4.41905 695.397 -1.15592 747.028 15.3534C798.658 31.8627 844.796 61.034 880.786 99.9231L648.356 294.512L712.004 582.735Z" fill="#D9D9D9"/>
</mask>
<g mask="url(#mask0_2001_2)">
<path d="M658.89 36.5325C719.636 44.3899 772.463 69.3906 812.961 109.494C833.61 130.005 847.744 149.291 858.67 171.945C873.506 202.966 879.621 230.008 879.721 264.294C879.721 289.295 876.513 309.092 868.895 331.95C860.976 355.318 847.143 380.42 831.706 399.094C828.398 403.278 825.591 406.952 825.591 407.258C825.591 407.666 832.808 437.157 841.629 472.77C850.35 508.383 857.367 537.772 857.067 538.078C856.766 538.282 828.097 523.996 793.213 506.343L729.861 474.199L717.832 478.485C703.598 483.587 681.344 489.301 665.206 491.852C648.566 494.505 599.548 494.505 583.008 491.852C531.785 483.689 486.977 464.3 449.888 434.095C422.523 411.85 401.973 386.033 387.037 354.909C372.302 324.398 366.488 298.785 366.488 264.601C366.488 239.6 369.295 221.844 377.013 197.762C380.622 186.537 393.152 160.924 400.369 149.801C439.563 90.1055 504.319 50.0023 582.006 37.4509C596.641 35.1039 643.353 34.5937 658.89 36.5325ZM590.025 68.5743C529.279 77.248 478.056 104.392 441.368 147.658C420.818 171.843 407.085 199.803 400.369 230.926C398.365 240.314 398.064 244.498 398.064 264.601C398.064 290.214 399.367 298.785 406.083 319.5C421.721 367.053 460.113 410.115 509.331 435.32C545.919 453.994 581.404 462.464 623.104 462.566C658.79 462.566 685.555 457.463 717.531 444.606L731.365 439.096L771.26 459.402L811.257 479.811L801.132 438.687L791.108 397.564L798.426 389.502C825.09 360.318 841.83 325.725 847.243 288.581C849.448 273.172 848.747 244.804 845.639 230.416C827.896 146.434 754.62 82.8604 659.191 68.7784C641.348 66.1252 608.169 66.0232 590.025 68.5743Z" fill="#141414"/>
</g>
<path d="M409.507 286.005C475.542 294.459 532.969 321.357 576.993 364.503C599.441 386.571 614.805 407.32 626.683 431.693C642.811 465.069 649.458 494.162 649.567 531.051C649.567 557.949 646.08 579.248 637.798 603.84C629.189 628.981 614.152 655.989 597.37 676.08C593.774 680.581 590.723 684.534 590.723 684.863C590.723 685.302 598.569 717.031 608.158 755.347C617.639 793.663 625.267 825.281 624.94 825.611C624.613 825.83 593.447 810.46 555.526 791.467L486.657 756.884L473.581 761.495C458.107 766.984 433.916 773.132 416.372 775.877C398.283 778.731 344.996 778.731 327.016 775.877C271.333 767.094 222.623 746.234 182.305 713.737C152.556 689.804 130.217 662.027 113.981 628.542C97.9621 595.716 91.6418 568.159 91.6418 531.38C91.6418 504.482 94.693 485.379 103.084 459.469C107.007 447.393 120.628 419.836 128.474 407.869C171.081 343.644 241.475 300.497 325.927 286.993C341.836 284.468 392.616 283.919 409.507 286.005ZM334.644 320.478C268.609 329.81 212.925 359.014 173.042 405.564C150.703 431.583 135.775 461.665 128.474 495.15C126.294 505.251 125.967 509.752 125.967 531.38C125.967 558.937 127.384 568.159 134.685 590.446C151.684 641.607 193.42 687.937 246.924 715.055C286.698 735.146 325.273 744.258 370.604 744.368C409.398 744.368 438.492 738.879 473.254 725.045L488.292 719.117L531.662 740.965L575.141 762.922L564.135 718.678L553.238 674.433L561.192 665.76C590.178 634.361 608.376 597.143 614.261 557.18C616.658 540.602 615.895 510.081 612.517 494.601C593.229 404.246 513.573 335.849 409.833 320.698C390.437 317.844 354.368 317.734 334.644 320.478Z" fill="#D6C7A8"/>
<mask id="mask1_2001_2" style="mask-type:alpha" maskUnits="userSpaceOnUse" x="-1" y="185" width="782" height="775">
<path d="M595.261 909.341C523.353 948.503 440.691 965.142 358.627 956.972C276.564 948.803 199.124 916.227 136.944 863.717C74.7645 811.207 30.8949 741.34 11.3606 663.711C-8.17366 586.082 -2.41436 504.5 27.8475 430.169C58.1093 355.838 111.389 292.404 180.37 248.58C249.35 204.756 330.647 182.692 413.095 185.417C495.543 188.142 575.098 215.524 640.833 263.801C706.568 312.078 755.258 378.882 780.217 455.039L399.469 572.096L595.261 909.341Z" fill="#D9D9D9"/>
</mask>
<g mask="url(#mask1_2001_2)">
<path d="M413.06 233.185C491.428 243.507 559.579 276.351 611.825 329.035C638.465 355.98 656.699 381.317 670.795 411.077C689.934 451.83 697.822 487.355 697.952 532.398C697.952 565.242 693.813 591.249 683.985 621.277C673.769 651.976 655.923 684.954 636.008 709.487C631.74 714.983 628.119 719.809 628.119 720.211C628.119 720.747 637.43 759.489 648.81 806.275C660.061 853.061 669.113 891.669 668.725 892.071C668.337 892.339 631.352 873.571 586.349 850.38L504.619 808.152L489.1 813.782C470.737 820.485 442.028 827.992 421.207 831.344C399.74 834.829 336.503 834.829 315.165 831.344C249.083 820.619 191.277 795.148 143.428 755.468C108.124 726.244 81.6133 692.327 62.3447 651.44C43.3347 611.357 35.8341 577.709 35.8341 532.8C35.8341 499.957 39.4551 476.631 49.4127 444.993C54.0682 430.247 70.2332 396.599 79.5442 381.987C130.108 303.564 213.649 250.88 313.872 234.391C332.752 231.308 393.016 230.638 413.06 233.185ZM324.217 275.278C245.85 286.673 179.767 322.332 132.436 379.172C105.925 410.943 88.2086 447.675 79.5442 488.562C76.9578 500.895 76.5699 506.391 76.5699 532.8C76.5699 566.448 78.251 577.709 86.9155 604.923C107.089 667.393 156.619 723.965 220.115 757.076C267.317 781.609 313.096 792.735 366.893 792.869C412.931 792.869 447.459 786.167 488.712 769.276L506.558 762.037L558.028 788.714L609.626 815.525L596.565 761.5L583.633 707.476L593.073 696.885C627.472 658.545 649.069 613.1 656.052 564.304C658.897 544.061 657.992 506.793 653.983 487.891C631.093 377.563 536.561 294.046 413.448 275.546C390.429 272.061 347.624 271.927 324.217 275.278Z" fill="#141414"/>
</g>
</svg>
